<?xml version="1.0" standalone="no"?>
<!DOCTYPE svg PUBLIC "-//W3C//DTD SVG 20010904//EN"
 "http://www.w3.org/TR/2001/REC-SVG-20010904/DTD/svg10.dtd">
<svg version="1.0" xmlns="http://www.w3.org/2000/svg"
 width="768.000000pt" height="768.000000pt" viewBox="0 0 768.000000 768.000000"
 preserveAspectRatio="xMidYMid meet">
<metadata>
Created by potrace 1.14, written by Peter Selinger 2001-2017
</metadata>
<g transform="translate(0.000000,768.000000) scale(0.100000,-0.100000)"
fill="#000000" stroke="none">
<path d="M3609 7676 c-2 -2 -43 -6 -90 -10 -71 -5 -336 -42 -439 -61 -84 -15
-331 -82 -448 -121 -236 -79 -548 -217 -680 -301 -29 -18 -54 -33 -57 -33 -20
0 -436 -286 -465 -320 -3 -3 -18 -16 -35 -29 -83 -63 -303 -274 -410 -392 -92
-102 -229 -277 -321 -410 -95 -137 -277 -466 -335 -604 -4 -11 -18 -42 -30
-70 -81 -184 -184 -518 -225 -730 -4 -22 -8 -42 -9 -45 -1 -3 -5 -32 -10 -65
-5 -33 -10 -62 -10 -65 -1 -3 -5 -32 -9 -65 -5 -33 -10 -69 -12 -79 -26 -144
-25 -683 1 -871 3 -16 7 -48 9 -70 11 -90 49 -302 67 -370 6 -22 13 -50 15
-62 2 -12 20 -75 39 -140 88 -302 211 -587 368 -856 29 -48 57 -95 62 -105 25
-43 95 -145 159 -232 455 -623 1086 -1091 1821 -1351 101 -36 292 -94 340
-103 11 -2 38 -9 60 -14 52 -14 183 -40 232 -47 21 -3 47 -7 58 -10 18 -4 81
-12 145 -20 164 -21 594 -27 761 -12 72 6 348 45 439 62 14 2 89 20 168 40
606 150 1185 458 1646 875 83 75 246 241 309 315 33 39 63 72 66 75 4 3 22 25
41 50 19 25 39 50 45 56 5 6 17 22 25 34 8 12 20 28 25 34 18 21 119 168 150
217 113 183 139 232 216 387 86 176 197 459 230 587 4 17 19 71 32 120 23 84
43 167 53 225 43 239 46 261 61 435 10 116 10 524 0 639 -10 108 -14 143 -33
266 -21 138 -23 145 -49 260 -88 382 -234 752 -428 1083 -29 48 -56 95 -62
105 -25 43 -95 145 -159 232 -455 623 -1086 1091 -1821 1351 -99 35 -288 93
-340 103 -11 3 -58 13 -105 24 -47 11 -101 23 -120 26 -19 3 -44 8 -55 10 -11
2 -42 7 -68 10 -27 4 -58 9 -70 12 -12 2 -51 6 -87 10 -36 3 -78 8 -95 11 -34
5 -561 13 -566 9z"/>
</g>
</svg>
